<?xml version="1.0" encoding="UTF-8"?>
<svg id="uuid-064ed3fd-fe33-4a9b-86fd-2aed5d624194" data-name="Capa_1" xmlns="http://www.w3.org/2000/svg" viewBox="0 0 1584 396">
  <defs>
    <style>
      .uuid-04a557fb-4508-459c-955f-70f02dbf3b58, .uuid-ec30da24-af2e-4149-9bfc-a6865ab86ab3 {
        stroke: #0a0806;
      }

      .uuid-04a557fb-4508-459c-955f-70f02dbf3b58, .uuid-ec30da24-af2e-4149-9bfc-a6865ab86ab3, .uuid-4ba6a959-2388-4b76-8b9c-e1fecc257813, .uuid-9f248b54-95e3-4eec-a583-de8b377f2d3c, .uuid-5b36388b-2d3c-467f-b12a-34ff3433b1ce {
        fill: none;
        stroke-miterlimit: 10;
      }

      .uuid-04a557fb-4508-459c-955f-70f02dbf3b58, .uuid-4ba6a959-2388-4b76-8b9c-e1fecc257813 {
        stroke-width: 2px;
      }

      .uuid-9c3e0fd8-7669-4421-8a62-5227a0c780b1 {
        fill: #fff;
      }

      .uuid-ec30da24-af2e-4149-9bfc-a6865ab86ab3, .uuid-9f248b54-95e3-4eec-a583-de8b377f2d3c {
        stroke-width: 4px;
      }

      .uuid-4ba6a959-2388-4b76-8b9c-e1fecc257813, .uuid-9f248b54-95e3-4eec-a583-de8b377f2d3c, .uuid-5b36388b-2d3c-467f-b12a-34ff3433b1ce {
        stroke: #000;
      }

      .uuid-c63c3a4e-025a-4560-b2c7-d6c6e622386b {
        fill: #0a0806;
      }

      .uuid-5b36388b-2d3c-467f-b12a-34ff3433b1ce {
        stroke-width: 3px;
      }

      .uuid-0aa2f9c8-ea26-44c4-9575-1ecf9ada8bca {
        fill: #f4b401;
      }
    </style>
  </defs>
  <rect class="uuid-0aa2f9c8-ea26-44c4-9575-1ecf9ada8bca" x="-9.58" y="-5.85" width="1222.09" height="407.71"/>
  <g>
    <path class="uuid-04a557fb-4508-459c-955f-70f02dbf3b58" d="M1460.08,175.72s59.77,16.84,53.38,47.76-22.99,37.81-22.99,37.81"/>
    <path class="uuid-04a557fb-4508-459c-955f-70f02dbf3b58" d="M1458.29,197.68s55.02,13.18,18.64,53.14"/>
    <path d="M1464.16,272.62c-.44.14-.68.67-.91,1.05-1.04,2.1-1.7,4.61-1.53,6.91.42,5.18,6.05,6.35,10.2,8.13,0,0-.01.2-.01.2-6.81-.18-14.22-3.41-11.55-11.5.51-1.54,1.28-3.01,2.39-4.2.38-.36.79-.83,1.46-.77l-.06.19h0Z"/>
    <path d="M1460.57,282.51c-5.52-1.22-8.95-5.67-7.54-11.31.9-4.64,2.08-9.31,4.47-13.44.95-1.77,2.61-3.08,4.66-3.14,3.79-.3,7.51.54,11.14,1.48-3.61-.77-7.4-1.44-11.07-.98-.88.15-1.82.36-2.46.91-1.98,1.88-2.81,4.69-3.64,7.25-.95,3.45-1.9,7.27-1.87,10.8.09,3.57,3.44,5.91,6.67,6.48,0,0-.34,1.97-.34,1.97h0Z"/>
    <path class="uuid-5b36388b-2d3c-467f-b12a-34ff3433b1ce" d="M1429.2,117.37l43.89,7.87s5.1,2.04,4.96,10.5"/>
    <path d="M1367.04,112.94c-1.86,43.8,31.4,44.23,31.4,44.23,36.16-2.33,30.77-36.88,30.77-36.88l2.58-2.45-.59-7.37c-.06-.76-.57-1.42-1.29-1.68-41.67-14.85-58.24-1.74-61.96,2.08-.55.56-.87,1.3-.9,2.08ZM1395.51,137.96c2.29-8.49,6.64-16.28,14.23-21.28l.43.21c-1.16,2.58-2.35,5.13-3.61,7.66-1.8,3.82-5.56,11.41-7.51,15.17-1.25,2.52-2.55,5.02-3.89,7.5l-.45-.21c-.31-3.31.12-6.23.79-9.05ZM1383.78,132.83c1.78-7.83,5.7-14.97,12.78-19.37l.45.21c-.99,2.35-2.03,4.68-3.11,7-1.55,3.48-4.83,10.42-6.53,13.84-1.09,2.31-2.23,4.59-3.41,6.85l-.45-.21c-.5-3.05-.22-5.74.27-8.33Z"/>
    <path class="uuid-9c3e0fd8-7669-4421-8a62-5227a0c780b1" d="M1394.71,147l.45.21c1.34-2.48,2.64-4.98,3.89-7.5,1.95-3.76,5.71-11.35,7.51-15.17,1.25-2.53,2.44-5.08,3.61-7.66l-.43-.21c-7.58,4.99-11.93,12.79-14.23,21.28-.67,2.81-1.1,5.74-.79,9.05Z"/>
    <path class="uuid-9c3e0fd8-7669-4421-8a62-5227a0c780b1" d="M1383.51,141.15l.45.21c1.18-2.27,2.32-4.55,3.41-6.85,1.7-3.42,4.98-10.36,6.53-13.84,1.08-2.32,2.12-4.65,3.11-7l-.45-.21c-7.08,4.4-10.99,11.54-12.78,19.37-.5,2.59-.77,5.28-.27,8.33Z"/>
    <path d="M1294.13,105.48c-.07,1.65-.14,4.42.06,5.04.3.87,4.96,2.94,4.96,2.94-4.08,31.66,14.29,38.32,23.47,39.63,9.2,1.31,23.77-1.75,29.89-17.35,5.18-13.2,2.95-23.32,2.14-26.12-.14-.49-.4-.94-.77-1.29-13.88-12.92-51.3-5.85-58.49-4.35-.72.15-1.23.77-1.26,1.5ZM1324.52,136.63c1.78-7.83,5.71-14.97,12.78-19.37l.45.21c-.99,2.35-2.03,4.68-3.11,7-1.55,3.48-4.82,10.42-6.52,13.84-1.1,2.31-2.24,4.59-3.42,6.85l-.45-.21c-.48-3.05-.22-5.74.27-8.33ZM1311.99,132.83c1.77-7.83,5.7-14.97,12.77-19.37l.46.21c-1,2.35-2.04,4.68-3.12,7-1.55,3.48-4.82,10.42-6.52,13.84-1.1,2.31-2.24,4.59-3.41,6.85l-.46-.21c-.48-3.05-.21-5.74.29-8.33Z"/>
    <path class="uuid-9c3e0fd8-7669-4421-8a62-5227a0c780b1" d="M1324.25,144.96l.45.21c1.18-2.27,2.32-4.55,3.42-6.85,1.7-3.42,4.97-10.36,6.52-13.84,1.08-2.32,2.12-4.65,3.11-7l-.45-.21c-7.06,4.4-10.99,11.54-12.78,19.37-.5,2.59-.76,5.28-.27,8.33Z"/>
    <path class="uuid-9c3e0fd8-7669-4421-8a62-5227a0c780b1" d="M1311.7,141.15l.46.21c1.16-2.27,2.31-4.55,3.41-6.85,1.7-3.42,4.97-10.36,6.52-13.84,1.08-2.32,2.12-4.65,3.12-7l-.46-.21c-7.06,4.4-10.99,11.54-12.77,19.37-.5,2.59-.77,5.28-.29,8.33Z"/>
    <path class="uuid-5b36388b-2d3c-467f-b12a-34ff3433b1ce" d="M1369.22,119.7s-8.8-4.52-15.84,0"/>
    <path class="uuid-ec30da24-af2e-4149-9bfc-a6865ab86ab3" d="M1473.33,180.4s4.14-41.18-19.7-79.69c-23.85-38.51-56.61-41.68-56.61-41.68,0,0-60.86-13.6-81.71,44.2"/>
    <path class="uuid-ec30da24-af2e-4149-9bfc-a6865ab86ab3" d="M1473.6,204.03s3.5,36.51-.31,46.8"/>
    <path class="uuid-ec30da24-af2e-4149-9bfc-a6865ab86ab3" d="M1423.37,295.65s-44.24,3.48-64.94-19.65c-24.89-27.81-45.78-62.01-48.7-100.29l-1.85-33.09"/>
    <path d="M1378.71,157.24c-8.07,10.79-24.87,11.22-32.77,0,0,0,.13-.15.13-.15,9.6,8.8,22.78,8.33,32.5,0,0,0,.14.15.14.15h0Z"/>
    <path class="uuid-4ba6a959-2388-4b76-8b9c-e1fecc257813" d="M1440,275.03s10.31,39.94,31.33,61.61c21.02,21.67,21.51,26.54,21.51,26.54,0,0-7.85,12.66-16.59,15.1-8.74,2.44-22.86.73-24.57-2.19s4.85-14.12,20.93-10.71"/>
    <path class="uuid-4ba6a959-2388-4b76-8b9c-e1fecc257813" d="M1417.6,281.12s13.15,37.99,33.61,62.34c0,0,17.01,14.9,10.82,21.82"/>
    <path d="M1471.34,336.64c-3.1,5.94-9.62,10.17-16.31,10.56,5.84-3.11,11.04-6.46,16.31-10.56h0Z"/>
    <path class="uuid-4ba6a959-2388-4b76-8b9c-e1fecc257813" d="M1364.56,281.65s-18.07,6.53-24.4,17c-5.71,9.44-4.65,36.5-4.38,37.99,2.68,15.1,2.19,22.65,2.19,22.65,0,0-40.18,4.38-44.56-3.41s16.07-10.71,19.97-10.47c1.81.11,1.41-5.71.64-13.24-.89-8.69-2.28-19.67-1.37-26.45,1.7-12.66,13.23-32.38,36.85-39.4"/>
    <path d="M1311.43,332.01c8.04,1.41,16.19,2.46,24.14,0-6.87,5.18-17,4.14-24.14,0h0Z"/>
    <ellipse cx="1365.68" cy="248.19" rx="1.15" ry="2.06" transform="translate(-9.04 440.05) rotate(-18.25)"/>
    <ellipse cx="1359.44" cy="254.15" rx="1.15" ry="2.06" transform="translate(-11.23 438.4) rotate(-18.25)"/>
    <ellipse cx="1356.75" cy="262.6" rx="1.15" ry="2.06" transform="translate(-14.01 437.98) rotate(-18.25)"/>
    <ellipse cx="1370.09" cy="269.79" rx="1.15" ry="2.06" transform="translate(-15.58 442.52) rotate(-18.25)"/>
    <ellipse cx="1347.63" cy="245.33" rx="1.15" ry="2.06" transform="translate(-9.06 434.26) rotate(-18.25)"/>
    <ellipse cx="1354.29" cy="237.71" rx="1.15" ry="2.06" transform="translate(-6.34 435.96) rotate(-18.25)"/>
    <ellipse cx="1341.13" cy="232.95" rx="1.15" ry="2.06" transform="translate(-5.51 431.6) rotate(-18.25)"/>
    <ellipse cx="1346.37" cy="224.36" rx="1.15" ry="2.06" transform="translate(-2.56 432.81) rotate(-18.25)"/>
    <ellipse cx="1424.73" cy="99.11" rx="1.15" ry="2.06" transform="translate(40.6 451.05) rotate(-18.25)"/>
    <ellipse cx="1434.63" cy="105.02" rx="1.15" ry="2.06" transform="translate(39.25 454.44) rotate(-18.25)"/>
    <ellipse cx="1427.57" cy="89.74" rx="1.15" ry="2.06" transform="translate(354.67 1035.73) rotate(-45)"/>
    <ellipse cx="1415.18" cy="82.99" rx="1.15" ry="2.06" transform="translate(804.32 1362.23) rotate(-67.83)"/>
    <ellipse cx="1366.96" cy="76.81" rx="2.06" ry="1.15" transform="translate(346.06 989.09) rotate(-45)"/>
    <ellipse cx="1358.62" cy="71.39" rx="2.06" ry="1.15" transform="translate(347.45 981.6) rotate(-45)"/>
    <ellipse cx="1352.85" cy="81.16" rx="2.06" ry="1.15" transform="translate(338.85 980.38) rotate(-45)"/>
    <ellipse cx="1358.82" cy="87.79" rx="2.06" ry="1.15" transform="translate(335.91 986.54) rotate(-45)"/>
    <ellipse cx="1412.2" cy="93.08" rx="1.15" ry="2.06" transform="translate(347.81 1025.84) rotate(-45)"/>
    <path d="M1389.95,46c-2.88,4.67,11.86,9.86,15.03,11.53,4.21,1.95,8.42,3.73,12.12,6.67,5.21,4.24,11.18,7.49,17.69,9.24,12.86,3.88,26.93,4.29,39.87.54,4.29-1.23,8.56-2.89,12.33-5.09l.91,1.77c-.52.17-.81.18-1.19.22-10.63-.27-21.2-14.08-27.62-21.58-4.75-5.23-10.64-9.37-17.11-12.21-16.54-7.35-40.41-6.62-52.02,8.92h0ZM1389.95,46c12.44-17.19,34.5-18.86,52.82-10.75,6.71,2.96,12.85,7.26,17.79,12.71,5.58,6.6,17.34,21.57,26.59,20.84,0,0,8.05-2.41,8.05-2.41l-7.14,4.18c-4.1,2.4-8.4,4.05-12.85,5.33-9.97,2.91-20.63,3.33-30.88,1.8-3.3-.61-6.91-1.35-10.1-2.34-6.7-1.8-13-5.22-18.37-9.6-5.45-3.89-11.72-6.86-17.43-10.43-2.43-1.7-10.77-5.85-8.47-9.34h0Z"/>
    <path d="M1479.22,72.73c-9.02-.88-18.23-3.01-26.09-7.8-1.29-.79-2.57-1.74-3.69-2.77-.71-.64-2.58-2.49-3.29-3.18-4.59-4.61-10.07-8.39-15.89-11.29-12.27-5.86-26.76-7.01-39.67-2.55,11.34-4.54,24.41-4.35,35.84-.08,3.75,1.42,7.54,3.33,10.91,5.53,3.39,2.25,6.59,4.84,9.45,7.75,2.17,2.18,4.2,4.3,6.79,5.9,7.65,4.89,16.72,7.17,25.63,8.5h0Z"/>
    <path d="M1453.55,53.01c-2.69.86-5.39,1.91-8.14,2.42-.95.04-1.91,0-2.93-.38l-.04-.2c1.6-1.38,3.43-1.7,5.41-1.71,1.88-.18,3.77-.28,5.66-.33,0,0,.04.2.04.2h0Z"/>
    <path d="M1449.06,72.77c-1.5-2.59-3.53-6.42-4.96-9.1-1.76-3.03-3.24-6.13-3.68-9.69,0,0,.18-.08.18-.08,2.41,2.65,3.81,5.79,4.96,9.1,0,0,1.89,4.82,1.89,4.82.6,1.62,1.22,3.23,1.8,4.87l-.18.08h0Z"/>
    <path d="M1422.57,63.36c-1.34-2.8-3.14-6.92-4.4-9.8-1.58-3.27-2.87-6.59-3.08-10.29,0,0,.19-.07.19-.07,2.25,2.94,3.45,6.3,4.4,9.8,0,0,1.59,5.13,1.59,5.13.5,1.72,1.02,3.43,1.5,5.16l-.19.07h0Z"/>
    <path d="M1418.92,43.24c3.66-2.95,8.17-4.78,12.86-5.18-3.66,2.96-8.18,4.77-12.86,5.18h0Z"/>
    <path class="uuid-4ba6a959-2388-4b76-8b9c-e1fecc257813" d="M1382.69,22.27s-3.11,7.49-13.71,5.64c0,0,3.34-7.14,13.71-5.64Z"/>
    <path class="uuid-4ba6a959-2388-4b76-8b9c-e1fecc257813" d="M1380.04,57.4s-2.3-25.56-11.06-29.48"/>
    <path class="uuid-4ba6a959-2388-4b76-8b9c-e1fecc257813" d="M1382.69,22.27s7.72,17.97,3.8,34.44"/>
    <path class="uuid-04a557fb-4508-459c-955f-70f02dbf3b58" d="M1314.69,205.17s-6.26,15.92-17.35,16.64c-11.09.72-22.01-20.57-22.01-20.57"/>
    <path class="uuid-04a557fb-4508-459c-955f-70f02dbf3b58" d="M1323.1,226.63s-11.45,15.38-26.29,14.67c-14.85-.72-30.27-21.52-34.2-29.92"/>
    <path class="uuid-c63c3a4e-025a-4560-b2c7-d6c6e622386b" d="M1273.74,189.69c12.23,5.3-3.72,21.83-11.92,22.28-3.54.65-7.81-1.35-8.47-5.09,2.94,6.04,10.58,3.71,14.73.37,4.88-3.82,13.53-12.37,5.66-17.56h0Z"/>
    <path class="uuid-c63c3a4e-025a-4560-b2c7-d6c6e622386b" d="M1270.25,196.16c3.63-5.05,5.51-11.8,2.66-17.63,0,0-1.75-4.44-1.75-4.44-1.23-2.96-1.87-6.34-1.63-9.56.05-1.6.27-3.27.59-4.84.33-2.52,1.94-6.25-.51-7.88-2.26-1.25-5.7-1.55-8-.1-3.04,1.81-4.78,5.78-4.83,9.43-.1,2.31-.28,4.85-.48,7.14,0,0-.2,0-.2,0-.21-3.17-.62-6.42-.47-9.61.36-3.39,2-6.73,4.93-8.66,4.27-2.81,13.22-1.16,12.12,5.26-.8,4.7-2.36,9.17-1.62,13.95.94,6.1,5.47,12.06,3.56,18.5-.75,3.14-2.26,6.04-4.21,8.56l-.16-.13h0Z"/>
    <path class="uuid-c63c3a4e-025a-4560-b2c7-d6c6e622386b" d="M1264.25,203.56c-7.51,6.97-22.85,4.06-27.8-4.73-3.2-6.65,1.45-10.78,7.76-11.89,3.46-.74,7.06-.74,10.51.04,1.8.36,3.74.99,4.9,2.52,2.7,2.98,1.22,7.99-2.31,9.58-3.28,1.48-6.89.96-10.23.2,3.24.32,6.88.58,9.77-1.06,3.59-1.99,3.84-7.31-.18-8.93-3.86-1.22-8.1-1.29-12.05-.43-4.92.98-9.06,3.65-6.48,9.15,1.33,2.8,4.14,4.77,7.09,6.19,5.94,2.92,13.4,3.32,19.02-.63h0Z"/>
    <path class="uuid-c63c3a4e-025a-4560-b2c7-d6c6e622386b" d="M1258.84,189.74c1.63-8.89-2.92-11.23-11-10.88-3.17.16-6.53.78-9.02,2.74-2.68,2.01-3.04,5.63-.46,8.09,0,0-.11.17-.11.17-3.49-2.21-3.44-6.7-.52-9.39,4.43-4.3,15.63-5.11,20.28-.88,2.75,2.66,2.34,6.97,1.01,10.23,0,0-.18-.08-.18-.08h0Z"/>
    <path class="uuid-c63c3a4e-025a-4560-b2c7-d6c6e622386b" d="M1259.73,181.73c5.74-11.7-4.45-14.03-13.92-13.64-2.16.23-4.52.72-6.21,2.06-2.85,2.22-3.24,6.84-.81,9.63-3.21-2.32-3.48-7.9-.21-10.81,1.96-1.82,4.55-2.45,7.05-2.81,5.19-.28,11.83.07,15.47,4.37,2.67,3.38,1.09,8.22-1.37,11.19h0Z"/>
    <path class="uuid-9f248b54-95e3-4eec-a583-de8b377f2d3c" d="M1444.97,290.45s9.09-2.91,13.32-9.73"/>
    <path d="M1481.82,281.45c3.76-6.58,7.71-11.88,4.26-19.69,0,0,.15-.13.15-.13,4.39,4.68,3.5,11.11-.32,15.83-1.16,1.53-2.48,2.93-3.97,4.15l-.12-.16h0Z"/>
    <path d="M1489.04,268.55c5.66-4.59-3.36-11.37-7.23-13.75-2.61-1.6-5.48-2.84-8.49-3.38-2.41-.5-7.72-.43-6.05,3.34-1.4-1.54-.59-3.49,1.24-4.24,6.49-2.3,13.47,1.36,18.29,5.56,2.42,2.21,4.91,5.02,4.93,8.53,0,1.74-1.09,3.5-2.69,3.94h0Z"/>
    <path d="M1487.04,274.22c3.24-1.32,6.68.25,7.24,3.87.45,2.98-.27,6.13-1.53,8.85-5.51,10.95-18.84,8.24-24.69-.75,0,0,.14-.14.14-.14,3.81,3.75,9.01,6.89,14.51,6.16,5.62-.73,9.26-5.95,10.08-11.28.89-4.22-1.19-7.31-5.72-6.52,0,0-.04-.2-.04-.2h0Z"/>
  </g>
</svg>