<?xml version="1.0" encoding="UTF-8"?>
<svg id="uuid-ee800200-6f7d-4e7f-b933-84d4b0dd6a74" data-name="Capa_1" xmlns="http://www.w3.org/2000/svg" viewBox="0 0 497.2 264.17">
  <defs>
    <style>
      .uuid-06728bca-3105-493d-937e-831b4605dcf6 {
        fill: #ed6d1d;
      }

      .uuid-146cab0e-aad4-402f-9589-7f44a91a16db {
        fill: #f4b401;
      }
    </style>
  </defs>
  <path class="uuid-146cab0e-aad4-402f-9589-7f44a91a16db" d="M320.46,91.63c-3.23-4.7-6.9-16.46-8.08-28.35-1.17-11.89-2.06-17.03-11.01-24.08-8.96-7.05-20.11-6.31-32.31-2.2-12.19,4.11-12.77,14.68-10.72,21.14,2.06,6.46,14.55,5.43,16.02,0,.72-2.69,2.2-4.98,3.51-6.61,1.84-2.28,4.87-3.38,7.62-2.4,4.64,1.65,4.72,7.48,4.48,10.27-.1,1.11-.6,2.15-1.46,2.86-3.38,2.78-9.02,2.24-20.92,10.18-13.51,9.01-16.44,23.3-13.21,34.6s12.48,15.12,21.15,16.63c6.41,1.13,13.72-2.58,17.07-4.58,1.06-.62,2.37-.53,3.38.18,1.66,1.16,4.93,2.78,10.83,3.47,9.84,1.17,15.86-8.96,17.33-15.12,1.47-6.17-.44-11.31-3.67-16ZM295.22,89.44c-1.17,3.96-5.14,9.25-10.72,4.99-5.03-3.83-.78-16.8,6.53-17.46,1.44-.12,2.77.83,3.16,2.24.75,2.68,1.84,7.48,1.03,10.23Z"/>
  <path class="uuid-06728bca-3105-493d-937e-831b4605dcf6" d="M385.11,215.5c-15.8-5.26-24.64,23.04-34.7,20.97-10.05-2.06-17.35-12.71-14.96-17.86,1.69-3.63,5.71-7.5,6.59-12.06.51-2.64,3.25-4.17,5.86-3.51,3.56.91,7.35,1.21,11.27.82,14.74-1.48,23.76-12.86,25.68-27.54,1.39-10.62.61-20.7-6.18-27.48-1.96-1.95-2.48-4.96-1.13-7.35.13-.22.26-.43.39-.64,1.32-2.01,6.58-1.69,9.09-1.46,2.51.24,8.61-4.55,6.11-10.77-2.51-6.22-13.64-6.47-20.1-2.63-3.54,2.09-5.47,6.34-6.48,9.76-.78,2.63-3.34,4.36-6.06,3.96-1.99-.29-4.05-.39-6.14-.29-16.87.76-29.07,14.98-29.36,31.86-.12,7.39.78,14.07,4.85,19.58,1.24,1.68.26,4.11-1.81,4.38-4.26.55-9.47,2.52-10.16,8.78-1.2,10.77,2.99,13.89,3.43,14.72,2.84,5.4-18.27,18.53-.32,33.97,0,0,51.58,27.76,77.42-15.32,0,0,2.51-16.63-13.29-21.9ZM356.65,156.22c1.8-.59,3.77.33,4.69,2.1,1.75,3.41,4.59,9.58,4.39,13.52-.29,5.68-3.73,13.94-12.1,9.78-7.51-3.74-6.06-22.44,3.02-25.4Z"/>
  <path class="uuid-146cab0e-aad4-402f-9589-7f44a91a16db" d="M187.09,91.72c-3.23-4.7-6.91-16.46-8.09-28.35-1.17-11.89-2.06-17.03-11.01-24.08-8.96-7.05-20.11-6.31-32.3-2.2-12.19,4.11-12.79,14.68-10.72,21.14,2.06,6.46,14.54,5.43,16,0,.72-2.69,2.2-4.98,3.51-6.61,1.84-2.28,4.87-3.38,7.62-2.4,4.64,1.65,4.72,7.48,4.48,10.27-.1,1.11-.59,2.17-1.46,2.86-3.38,2.78-9.01,2.24-20.91,10.18-13.52,9.01-16.46,23.3-13.23,34.6,3.24,11.31,12.49,15.12,21.15,16.63,6.41,1.13,13.72-2.58,17.07-4.58,1.06-.62,2.37-.53,3.38.18,1.66,1.17,4.93,2.78,10.83,3.47,9.84,1.17,15.87-8.96,17.34-15.12,1.47-6.17-.44-11.31-3.67-16ZM161.83,89.44c-1.17,3.96-5.14,9.25-10.72,4.99-5.02-3.83-.77-16.8,6.53-17.46,1.46-.12,2.78.83,3.16,2.24.75,2.68,1.85,7.48,1.03,10.23Z"/>
  <path class="uuid-06728bca-3105-493d-937e-831b4605dcf6" d="M209.24,200.7c-3.45-5.02-7.37-17.56-8.63-30.26-1.25-12.71-2.19-18.19-11.76-25.72-9.57-7.54-21.49-6.75-34.5-2.36-13.02,4.39-13.64,15.69-11.45,22.59,2.2,6.9,15.53,5.8,17.1,0,.77-2.88,2.35-5.32,3.76-7.06,1.95-2.43,5.2-3.61,8.14-2.56,4.96,1.76,5.04,7.98,4.78,10.96-.11,1.19-.64,2.3-1.55,3.06-3.61,2.96-9.63,2.39-22.34,10.86-14.43,9.63-17.57,24.87-14.12,36.95,3.45,12.08,13.34,16.15,22.59,17.77,6.85,1.19,14.65-2.75,18.23-4.89,1.14-.66,2.53-.56,3.61.2,1.77,1.25,5.26,2.96,11.56,3.72,10.51,1.25,16.93-9.57,18.51-16.16,1.57-6.58-.48-12.06-3.93-17.09ZM182.29,197.4c-1.26,4.23-5.49,9.89-11.45,5.33-5.36-4.09-.83-17.95,6.99-18.65,1.54-.13,2.95.89,3.36,2.39.8,2.86,1.97,7.99,1.1,10.93Z"/>
  <path class="uuid-06728bca-3105-493d-937e-831b4605dcf6" d="M455.22,177.89c-4.1-3.51-9.07-12.27-9.65-13.32-.53-.73-6.04-8.15-13.57-8.15-.23,0-.46,0-.71.02-8.22.5-12.93,6.19-14.61,11.34-.64,1.98-2.18,3.9-3.98,6.12-3.68,4.56-8.27,10.25-7.26,19.21,1.53,13.46,17.36,22.66,31.48,24.5,6.89.89,14.14-1.5,19.92-6.58,4.77-4.18,7.73-9.64,7.73-14.22,0-9.65-5-15.17-9.36-18.92ZM449.01,181.28c-.13,3.6-4.8,4.76-6.18,5.03-.2.04-.39-.11-.39-.32-.05-5.33,6.72-8.83,6.57-4.71ZM444.07,171.38c.72,3.52-3.54,5.76-4.81,6.35-.18.07-.42-.02-.46-.22-1.3-5.18,4.44-10.18,5.27-6.13ZM434.75,165.81c2.34,2.74-.31,6.75-1.14,7.88-.12.16-.37.18-.5.04-3.66-3.9-1.04-11.06,1.64-7.92ZM429.07,179.87c3.52.69,3.95,5.48,4,6.89,0,.2-.17.37-.38.33-5.29-.78-7.67-8.01-3.62-7.22ZM430.09,190.34c-3.3,3.68-10.09,1.85-7.41-.87,2.32-2.37,6.24-.27,7.34.42.16.1.21.32.07.45ZM424.09,169.5c3.54.69,3.96,5.48,4,6.88.01.21-.17.38-.37.34-5.29-.78-7.68-8.01-3.63-7.22ZM417.32,178.43c4.04-1.19,7.05,3.56,7.86,4.99.11.21.01.48-.21.55-5.91,2.02-12.27-4.18-7.65-5.54ZM411.47,188.19c2.32-2.37,6.24-.26,7.34.43.16.1.21.32.07.45-3.3,3.68-10.09,1.85-7.41-.88ZM424.55,195.91c-2.1,5.44-10.38,6.28-8.56,2.15,1.58-3.6,6.79-2.91,8.3-2.63.22.05.35.27.27.48ZM425.1,208.37c-.88-3.83,3.71-6.39,5.09-7.06.2-.1.44.01.5.22,1.57,5.63-4.58,11.23-5.59,6.84ZM430.25,197.44c-.67-3.23,3.23-5.29,4.39-5.82.17-.09.38.01.43.2,1.21,4.75-4.05,9.35-4.82,5.63ZM435.12,205.9c-1.86-2.73.94-6.13,1.81-7.07.13-.15.35-.13.46.01,2.95,3.92-.13,10.19-2.28,7.06ZM436.62,188.58c-.16.13-.4.1-.5-.07-2.68-4.62,1.47-11.01,3.38-7.35,1.66,3.19-1.81,6.52-2.88,7.43ZM440.8,192.15c.01-.18.2-.32.38-.27,4.72,1.31,6.11,8.15,2.51,6.99-3.14-1.03-3-5.43-2.89-6.72ZM443.99,210.26c-2.75-1.81-1.46-6.02-1-7.23.06-.17.27-.26.43-.16,4.22,2.51,3.74,9.47.58,7.39ZM452.84,205.08c-3.24-.67-3.57-5.07-3.61-6.36,0-.18.17-.33.35-.31,4.83.78,6.96,7.44,3.25,6.67ZM454.81,190.25c-2.23,2.85-6.72,1.06-7.99.47-.2-.09-.26-.32-.15-.49,3.11-4.38,10.68-3.25,8.14.02Z"/>
  <path class="uuid-06728bca-3105-493d-937e-831b4605dcf6" d="M475.46,186.69c-2.97-33.28-16.85-44.83-42.93-47.53,0,0-32.7-1.91-39.97,41.29-7.27,43.2,36.34,55.21,45.59,53.66s40.29-14.14,37.32-47.42ZM459.27,213.79c-5.65,4.97-12.6,7.67-19.49,7.67-1.11,0-2.23-.07-3.33-.22-15.89-2.06-32.89-12.24-34.65-27.71-1.19-10.49,4.15-17.1,8.05-21.94,1.55-1.93,2.91-3.6,3.34-4.93,2.04-6.31,7.82-13.26,17.88-13.89,10.34-.65,17.29,9.36,17.58,9.79l.09.15c.05.09,5.1,9.18,8.87,12.41,4.96,4.25,10.64,10.55,10.64,21.69,0,5.69-3.35,12.04-8.98,16.98Z"/>
  <path class="uuid-146cab0e-aad4-402f-9589-7f44a91a16db" d="M77.71,65.42c-1.07,3.12-2.82,5.99-5.26,8.21-3.9,3.55-9.84,6.04-14.74-4.31-8.08-17.03-9.4-23.79-12.63-24.08s.44,11.79,2.5,15.73,12.63,21.71,14.69,36.99c2.06,15.27-4.26,22.62-11.45,24.97s-25.55.73-28.64-6.17c-3.08-6.9,6.17-41.41,5.14-59.18-1.03-17.77,2.2-41.71,18.8-37.89s13.36,30.25,20.71,28.34,2.5-29.96,22.76-27.61c20.27,2.35,15.27,32.75,15.86,42.59s7.34,26.58,8.96,29.81c1.62,3.23,9.25,23.64-7.05,29.66-16.3,6.02-28.64-2.5-30.84-6.02-1.63-2.6-5.43-18.06,2.06-34.95,7.49-16.89,11.31-32.01,9.99-35.98-1.22-3.65-6.66,7.75-10.84,19.89Z"/>
  <path class="uuid-146cab0e-aad4-402f-9589-7f44a91a16db" d="M199.73,51.21c1.48,2.72,2.21,5.77,2.36,8.86.34,6.96.57,18.31-1.1,23.8-2.5,8.22-9.69,19.53-7.05,28.34,2.64,8.81,10.87,12.04,17.77,11.75,6.9-.29,23.79-2.5,23.94-13.66s-5.87-20.98-6.17-21.21-5.73-14.18-5.58-21.52.73-12.19,5.43-12.19,4.55,6.76,7.2,8.08,14.98,2.35,17.77-7.93c2.79-10.28-2.5-18.83-7.05-20.72s-18.3-.86-23.03,7.95c0,0-2.96.59-2.82-.59s2.79-8.53-7.64-8.16-15.42,6.1-16.01,8.31c-.46,1.73-.02,5.26,1.97,8.9Z"/>
  <path class="uuid-146cab0e-aad4-402f-9589-7f44a91a16db" d="M368.52,123.5c-21.58,6.57-38.5-15.55-40.19-19.67-.76-1.86-7.62-22.43-.76-42.71,5.98-17.7,17.9-27.27,34.01-27.04,3.65-2.9,6.9-7.71,4.32-15.06-.04-.11-.2-.09-.2.04.17,2.29.09,9.05-5.81,13.47,0,0-9.94-14.94-2.69-23.14,0,0,4.36-4.83,7.94-6.07.23-.07.49-.02.66.15,1.54,1.35,8.6,7.9,8.7,14.9.07,5.41-4.18,11.87-10.36,15.83,1.55.1,3.14.31,4.77.6,19.83,3.58,16.16,20.52,12.81,23.72-3,2.86-11.01,8.91-15.94-1.66-1.52-3.25-5.38-4.71-8.69-3.32-2.07.87-4.12,2.37-5.42,4.98-3.51,7.01-3.51,21.04,1.52,23.94,5.04,2.9,16.03-2.29,21.22-4.88,5.19-2.59,12.66-1.98,13.42,6.86.76,8.86,2.26,32.5-19.31,39.05Z"/>
  <path class="uuid-146cab0e-aad4-402f-9589-7f44a91a16db" d="M404.99,34.06s15.38-1.22,16.86,7.21-8.28,36.97,0,41.26,15.82-2.81,14.2-18.04c-1.63-15.23-3.84-25.14.89-27.36s20.26-5.03,23.81.15-2.07,38.15-.74,43.48c1.33,5.32,6.65,15.67,7.54,18.19s3.84,18.34-9.61,23.36c-13.46,5.03-19.64.74-21.21-1.48-.71-1.01-2.89-4.14-4.96-1.04-2.07,3.11-16.5,5.61-24.55.89-6.78-3.98-12.87-4.98-11.83-26.32.99-20.41.38-33.12-.11-35.05s-10.1-15.08-4.33-19.96c5.77-4.88,14.05-5.28,14.05-5.28Z"/>
  <path class="uuid-06728bca-3105-493d-937e-831b4605dcf6" d="M101.44,140.18c3.56-.39,7.21.23,10.36,1.95,5.64,3.08,8.46,8.94,10.07,21.95,2.15,17.36,4.3,24.73,10.6,40.7,6.3,15.97-2.46,25.65-8.45,28.26-5.99,2.61-28.88,3.53-31.95-8.29-3.07-11.83,6.14-31.95,7.37-43.57,1.23-11.62.61-19.25-6.6-19.25s-3.38,24.97-3.38,24.97c0,0,2.61,21.57-11.21,20.34-13.82-1.23-11.06-17.82-11.06-18.59s.61-24.11-5.22-26.26c-5.84-2.15-6.6,4.45-7.22,13.36s8.6,25.5,9.98,30.1c1.38,4.61,1.84,19.2-5.84,24.88-7.68,5.68-24.11,2.76-31.64,0-7.53-2.76-7.22-18.89-1.38-29.18,5.84-10.29,4.61-27.19,4.92-35.17.31-7.99-4.92-9.22-4.92-16.78s9.68-9.94,17.2-9.79c7.53.15,6.45,6.3,9.06,9.06,1.79,1.89,3.29-.32,4.06-1.9,1.2-2.47,3.05-4.62,5.43-5.99,3.3-1.9,8.33-2.94,15.24.52,0,0,4.61,3.07,7.53,7.53,2.92,4.45,4.15-6.6,11.52-8.29,2.35-.54,4.19-.4,5.53-.55Z"/>
  <path class="uuid-06728bca-3105-493d-937e-831b4605dcf6" d="M262.05,163.2c-6.22-.07-12.77,5.04-13.38,13.95-.61,8.91,9.99,25.37,11.37,29.98,1.38,4.61,1.84,19.2-5.84,24.88-7.68,5.68-24.11,2.76-31.64,0-7.53-2.76-7.22-18.89-1.38-29.18,5.84-10.29,4.61-27.19,4.92-35.17.31-7.99-4.92-9.22-4.92-16.78s9.68-9.94,17.2-9.79c7.53.15,6.45,6.3,9.06,9.06,1.79,1.89,3.29-.32,4.06-1.9,1.2-2.47,3.05-4.62,5.43-5.99,0,0,20.92-9.52,32.63,3.67,7.53,8.48,8.83,18.5,8.81,24.58-.02,4.21.65,8.38,2.11,12.33,3.47,9.32,9.26,25.27,9.52,28.51.37,4.65,4.83,23.87-18.21,23.92-23.05.05-24.53-11.47-24.53-13.7s7.62-34.2,5.58-43.86c-2.04-9.66-3.85-14.43-10.78-14.51Z"/>
</svg>